<svg width="258" height="48" viewBox="0 0 258 48" fill="none" xmlns="http://www.w3.org/2000/svg">
<path d="M0.568182 47V40L1.88636 39.9318C3.67424 39.8258 5.09091 39.1818 6.13636 38C7.19697 36.8182 7.97727 34.9167 8.47727 32.2955C8.99242 29.6742 9.33333 26.1591 9.5 21.75L10.2727 0.454544H40.7727V47H32.5227V7.38636H18.1364L17.4091 24.3636C17.197 29.4545 16.6364 33.6742 15.7273 37.0227C14.8333 40.3712 13.3636 42.8712 11.3182 44.5227C9.28788 46.1742 6.46212 47 2.84091 47H0.568182ZM64.8295 47.6818C61.4205 47.6818 58.4659 46.9318 55.9659 45.4318C53.4659 43.9318 51.5265 41.8333 50.1477 39.1364C48.7841 36.4394 48.1023 33.2879 48.1023 29.6818C48.1023 26.0758 48.7841 22.9167 50.1477 20.2045C51.5265 17.4924 53.4659 15.3864 55.9659 13.8864C58.4659 12.3864 61.4205 11.6364 64.8295 11.6364C68.2386 11.6364 71.1932 12.3864 73.6932 13.8864C76.1932 15.3864 78.125 17.4924 79.4886 20.2045C80.8674 22.9167 81.5568 26.0758 81.5568 29.6818C81.5568 33.2879 80.8674 36.4394 79.4886 39.1364C78.125 41.8333 76.1932 43.9318 73.6932 45.4318C71.1932 46.9318 68.2386 47.6818 64.8295 47.6818ZM64.875 41.0909C66.7235 41.0909 68.2689 40.5833 69.5114 39.5682C70.7538 38.5379 71.678 37.1591 72.2841 35.4318C72.9053 33.7045 73.2159 31.7803 73.2159 29.6591C73.2159 27.5227 72.9053 25.5909 72.2841 23.8636C71.678 22.1212 70.7538 20.7348 69.5114 19.7045C68.2689 18.6742 66.7235 18.1591 64.875 18.1591C62.9811 18.1591 61.4053 18.6742 60.1477 19.7045C58.9053 20.7348 57.9735 22.1212 57.3523 23.8636C56.7462 25.5909 56.4432 27.5227 56.4432 29.6591C56.4432 31.7803 56.7462 33.7045 57.3523 35.4318C57.9735 37.1591 58.9053 38.5379 60.1477 39.5682C61.4053 40.5833 62.9811 41.0909 64.875 41.0909ZM111.631 12.0909V18.8409H96.5852V47H88.5398V12.0909H111.631ZM132.017 47.6818C128.608 47.6818 125.653 46.9318 123.153 45.4318C120.653 43.9318 118.714 41.8333 117.335 39.1364C115.972 36.4394 115.29 33.2879 115.29 29.6818C115.29 26.0758 115.972 22.9167 117.335 20.2045C118.714 17.4924 120.653 15.3864 123.153 13.8864C125.653 12.3864 128.608 11.6364 132.017 11.6364C135.426 11.6364 138.381 12.3864 140.881 13.8864C143.381 15.3864 145.313 17.4924 146.676 20.2045C148.055 22.9167 148.744 26.0758 148.744 29.6818C148.744 33.2879 148.055 36.4394 146.676 39.1364C145.313 41.8333 143.381 43.9318 140.881 45.4318C138.381 46.9318 135.426 47.6818 132.017 47.6818ZM132.062 41.0909C133.911 41.0909 135.456 40.5833 136.699 39.5682C137.941 38.5379 138.866 37.1591 139.472 35.4318C140.093 33.7045 140.403 31.7803 140.403 29.6591C140.403 27.5227 140.093 25.5909 139.472 23.8636C138.866 22.1212 137.941 20.7348 136.699 19.7045C135.456 18.6742 133.911 18.1591 132.062 18.1591C130.169 18.1591 128.593 18.6742 127.335 19.7045C126.093 20.7348 125.161 22.1212 124.54 23.8636C123.934 25.5909 123.631 27.5227 123.631 29.6591C123.631 31.7803 123.934 33.7045 124.54 35.4318C125.161 37.1591 126.093 38.5379 127.335 39.5682C128.593 40.5833 130.169 41.0909 132.062 41.0909ZM151.881 18.8409V12.0909H182.426V18.8409H171.131V47H163.176V18.8409H151.881ZM196.909 35.8636L210.886 12.0909H219.341V47H211.386V23.2045L197.455 47H188.977V12.0909H196.909V35.8636ZM227.79 47V12.0909H257.267V47H249.335V18.8409H235.653V47H227.79Z" fill="url(#paint0_linear_36_58)"/>
<defs>
<linearGradient id="paint0_linear_36_58" x1="130.5" y1="-15" x2="130.5" y2="62" gradientUnits="userSpaceOnUse">
<stop offset="0.332429" stop-color="#28F2C2"/>
<stop offset="1" stop-color="#02A1F9"/>
<stop offset="1" stop-color="white" stop-opacity="0"/>
</linearGradient>
</defs>
</svg>
